<svg width="64" height="64" viewBox="0 0 64 64" fill="none" xmlns="http://www.w3.org/2000/svg">
<g id="Frame 2147223960">
<rect x="0.75" y="0.75" width="62.5" height="62.5" rx="11.25" fill="url(#paint0_linear_5745_15320)"/>
<rect x="0.75" y="0.75" width="62.5" height="62.5" rx="11.25" stroke="url(#paint1_linear_5745_15320)" stroke-width="1.5"/>
<g id="Vector" filter="url(#filter0_i_5745_15320)">
<path d="M50.8668 27.6932L52.4538 22.7938H46.045L48.4536 16H40.1581L32.2246 40.1594L24.2942 16H15.9971L18.4073 22.7938H12L13.587 27.6932H20.1449L21.0274 30.1764H14.3919L15.9789 35.0758H22.7651L27.3495 48H37.1058L41.6903 35.0758H48.478L50.0649 30.1764H43.4294L44.3089 27.6932H50.8668Z" fill="white"/>
</g>
</g>
<defs>
<filter id="filter0_i_5745_15320" x="12" y="16" width="40.4537" height="33" filterUnits="userSpaceOnUse" color-interpolation-filters="sRGB">
<feFlood flood-opacity="0" result="BackgroundImageFix"/>
<feBlend mode="normal" in="SourceGraphic" in2="BackgroundImageFix" result="shape"/>
<feColorMatrix in="SourceAlpha" type="matrix" values="0 0 0 0 0 0 0 0 0 0 0 0 0 0 0 0 0 0 127 0" result="hardAlpha"/>
<feOffset dy="1"/>
<feGaussianBlur stdDeviation="1"/>
<feComposite in2="hardAlpha" operator="arithmetic" k2="-1" k3="1"/>
<feColorMatrix type="matrix" values="0 0 0 0 0.235294 0 0 0 0 0.247059 0 0 0 0 0.776471 0 0 0 0.24 0"/>
<feBlend mode="normal" in2="shape" result="effect1_innerShadow_5745_15320"/>
</filter>
<linearGradient id="paint0_linear_5745_15320" x1="32" y1="0" x2="32" y2="64" gradientUnits="userSpaceOnUse">
<stop offset="0.316983" stop-color="#596AEC"/>
<stop offset="1" stop-color="#8499F5"/>
</linearGradient>
<linearGradient id="paint1_linear_5745_15320" x1="32" y1="0" x2="32" y2="64" gradientUnits="userSpaceOnUse">
<stop stop-color="#E1EAFE" stop-opacity="0.32"/>
<stop offset="1" stop-color="#E1EAFE" stop-opacity="0"/>
</linearGradient>
</defs>
</svg>
