<svg width="330" height="240" viewBox="0 0 330 240" fill="none" xmlns="http://www.w3.org/2000/svg">
<g filter="url(#filter0_b_5759_9205)">
<path d="M316.343 74.8573L329.237 35.0494H277.165L296.736 -20.15H229.334L164.875 176.145L100.441 -20.15H33.0268L52.6094 35.0494H0.550049L13.4443 74.8573H66.7276L73.8979 95.0333H19.9842L32.8785 134.841H88.0162L125.265 239.85H204.535L241.783 134.841H296.933L309.828 95.0333H255.914L263.06 74.8573H316.343Z" fill="#596AEC" fill-opacity="0.07"/>
<path d="M255.914 95.3583H309.381L296.697 134.516H241.783H241.554L241.477 134.733L204.305 239.525H125.495L88.3225 134.733L88.2458 134.516H88.0162H33.1148L20.4311 95.3583H73.8979H74.3583L74.2042 94.9244L67.0339 74.7485L66.957 74.5323H66.7276H13.6807L0.996944 35.3744H52.6094H53.0695L52.9157 34.9407L33.487 -19.825H100.205L164.566 176.246L164.875 177.187L165.184 176.246L229.57 -19.825H296.276L276.859 34.9408L276.705 35.3744H277.165H328.79L316.106 74.5323H263.06H262.83L262.753 74.7488L255.608 94.9248L255.454 95.3583H255.914Z" stroke="#596AEC" stroke-opacity="0.08" stroke-width="0.65"/>
</g>
<defs>
<filter id="filter0_b_5759_9205" x="-15.05" y="-35.75" width="359.887" height="291.2" filterUnits="userSpaceOnUse" color-interpolation-filters="sRGB">
<feFlood flood-opacity="0" result="BackgroundImageFix"/>
<feGaussianBlur in="BackgroundImageFix" stdDeviation="7.8"/>
<feComposite in2="SourceAlpha" operator="in" result="effect1_backgroundBlur_5759_9205"/>
<feBlend mode="normal" in="SourceGraphic" in2="effect1_backgroundBlur_5759_9205" result="shape"/>
</filter>
</defs>
</svg>
